<svg xmlns="http://www.w3.org/2000/svg" xmlns:xlink="http://www.w3.org/1999/xlink" width="500" zoomAndPan="magnify" viewBox="0 0 375 374.999991" height="500" preserveAspectRatio="xMidYMid meet" version="1.0"><defs><g/><clipPath id="cb528ec4a9"><path d="M 155.558594 129.515625 L 219.25 129.515625 L 219.25 184.902344 L 155.558594 184.902344 Z M 155.558594 129.515625 " clip-rule="nonzero"/></clipPath><clipPath id="b90f32086a"><path d="M 161.875 163.242188 L 177.566406 163.242188 L 177.566406 178.472656 L 161.875 178.472656 Z M 161.875 163.242188 " clip-rule="nonzero"/></clipPath></defs><g clip-path="url(#cb528ec4a9)"><path fill="#2c6871" d="M 200.976562 135.074219 L 208.828125 135.074219 C 209.117188 135.074219 209.402344 135.101562 209.6875 135.160156 C 209.972656 135.214844 210.246094 135.300781 210.515625 135.414062 C 210.78125 135.523438 211.035156 135.660156 211.277344 135.820312 C 211.519531 135.984375 211.742188 136.167969 211.945312 136.375 C 212.148438 136.578125 212.332031 136.804688 212.492188 137.042969 C 212.65625 137.285156 212.789062 137.542969 212.902344 137.8125 C 213.011719 138.078125 213.09375 138.355469 213.152344 138.640625 C 213.207031 138.925781 213.238281 139.214844 213.238281 139.507812 L 213.238281 149.445312 C 213.238281 150.191406 213.238281 150.75 212.867188 151.496094 L 213.980469 151.496094 C 217.75 151.496094 219.179688 153.738281 219.179688 156.535156 L 219.179688 163.441406 C 219.179688 166.238281 218.121094 168.667969 213.980469 168.667969 L 212.867188 168.667969 C 213.238281 169.226562 213.238281 169.972656 213.238281 170.71875 L 213.238281 180.464844 C 213.238281 180.753906 213.207031 181.042969 213.152344 181.328125 C 213.09375 181.613281 213.011719 181.890625 212.902344 182.160156 C 212.789062 182.429688 212.65625 182.683594 212.492188 182.925781 C 212.332031 183.167969 212.148438 183.390625 211.945312 183.597656 C 211.742188 183.804688 211.519531 183.988281 211.277344 184.148438 C 211.035156 184.308594 210.78125 184.445312 210.515625 184.558594 C 210.246094 184.667969 209.972656 184.753906 209.6875 184.808594 C 209.402344 184.867188 209.117188 184.894531 208.828125 184.894531 L 159.441406 184.894531 C 158.9375 184.894531 158.453125 184.796875 157.984375 184.601562 C 157.519531 184.40625 157.109375 184.128906 156.75 183.773438 C 156.394531 183.414062 156.117188 183.003906 155.925781 182.535156 C 155.730469 182.066406 155.632812 181.578125 155.628906 181.074219 L 155.628906 139.691406 C 155.628906 139.390625 155.660156 139.089844 155.71875 138.792969 C 155.777344 138.496094 155.867188 138.207031 155.984375 137.929688 C 156.097656 137.648438 156.238281 137.382812 156.40625 137.128906 C 156.574219 136.878906 156.765625 136.644531 156.980469 136.433594 C 157.191406 136.21875 157.425781 136.027344 157.675781 135.855469 C 157.925781 135.6875 158.1875 135.546875 158.46875 135.429688 C 158.746094 135.3125 159.03125 135.226562 159.328125 135.164062 C 159.625 135.105469 159.921875 135.074219 160.222656 135.074219 L 185.191406 135.074219 L 196.707031 129.664062 C 197.449219 129.289062 198.378906 129.664062 198.75 130.410156 Z M 200.976562 135.074219 " fill-opacity="1" fill-rule="nonzero"/></g><path fill="#cbd2d8" d="M 201.414062 151.574219 L 208.777344 151.542969 C 209.523438 151.355469 210.265625 150.378906 210.265625 149.445312 L 210.265625 144.21875 L 164.203125 144.21875 C 163.273438 144.21875 162.53125 143.472656 162.53125 142.726562 C 162.53125 142.503906 162.574219 142.289062 162.660156 142.082031 C 162.742188 141.878906 162.863281 141.695312 163.019531 141.539062 C 163.175781 141.378906 163.359375 141.257812 163.5625 141.175781 C 163.769531 141.089844 163.980469 141.046875 164.203125 141.046875 L 172.746094 141.046875 L 178.691406 138.246094 L 160.828125 138.246094 C 160.558594 138.25 160.300781 138.304688 160.050781 138.40625 C 159.800781 138.511719 159.582031 138.660156 159.390625 138.855469 C 159.199219 139.046875 159.050781 139.265625 158.945312 139.515625 C 158.84375 139.765625 158.789062 140.027344 158.785156 140.300781 L 158.785156 179.863281 C 158.789062 180.136719 158.84375 180.394531 158.945312 180.644531 C 159.050781 180.898438 159.199219 181.117188 159.390625 181.308594 C 159.582031 181.5 159.800781 181.648438 160.050781 181.753906 C 160.300781 181.859375 160.558594 181.914062 160.828125 181.917969 L 208.222656 181.917969 C 208.492188 181.914062 208.75 181.859375 209 181.753906 C 209.25 181.648438 209.46875 181.5 209.660156 181.308594 C 209.851562 181.117188 210 180.898438 210.105469 180.644531 C 210.210938 180.394531 210.261719 180.136719 210.265625 179.863281 L 210.265625 170.71875 C 210.261719 170.449219 210.210938 170.1875 210.105469 169.9375 C 210 169.6875 209.851562 169.464844 209.660156 169.273438 C 209.46875 169.082031 209.25 168.933594 209 168.828125 C 208.75 168.722656 208.492188 168.667969 208.222656 168.667969 L 198.816406 168.667969 C 194.671875 168.667969 193.800781 166.425781 193.800781 163.441406 L 193.800781 156.535156 C 193.800781 151.871094 196.957031 151.574219 201.414062 151.574219 Z M 201.414062 151.574219 " fill-opacity="1" fill-rule="nonzero"/><path fill="#8fffa8" d="M 179.992188 141.046875 L 200.421875 141.046875 L 196.519531 133.210938 Z M 179.992188 141.046875 " fill-opacity="1" fill-rule="nonzero"/><path fill="#b0bbc4" d="M 203.949219 141.046875 L 210.265625 141.046875 L 210.265625 140.300781 C 210.261719 140.027344 210.210938 139.765625 210.105469 139.515625 C 210 139.265625 209.851562 139.046875 209.660156 138.855469 C 209.46875 138.660156 209.25 138.511719 209 138.40625 C 208.75 138.304688 208.492188 138.25 208.222656 138.246094 L 202.464844 138.246094 Z M 203.949219 141.046875 " fill-opacity="1" fill-rule="nonzero"/><path fill="#cbd2d8" d="M 213.980469 154.667969 L 198.816406 154.667969 C 197.699219 154.667969 196.957031 155.417969 196.957031 156.535156 L 196.957031 163.441406 C 196.957031 164.5625 197.699219 165.492188 198.816406 165.492188 L 213.980469 165.492188 C 214.25 165.492188 214.507812 165.4375 214.757812 165.332031 C 215.007812 165.226562 215.226562 165.078125 215.417969 164.886719 C 215.609375 164.695312 215.757812 164.472656 215.863281 164.222656 C 215.96875 163.972656 216.019531 163.710938 216.023438 163.441406 L 216.023438 156.535156 C 216.023438 155.417969 215.09375 154.667969 213.980469 154.667969 Z M 213.980469 154.667969 " fill-opacity="1" fill-rule="nonzero"/><path fill="#2c6871" d="M 205.386719 160.082031 C 205.386719 160.460938 205.316406 160.828125 205.171875 161.179688 C 205.023438 161.53125 204.820312 161.84375 204.550781 162.113281 C 204.28125 162.382812 203.972656 162.589844 203.625 162.734375 C 203.273438 162.882812 202.910156 162.953125 202.527344 162.953125 C 202.148438 162.953125 201.785156 162.882812 201.433594 162.734375 C 201.085938 162.589844 200.777344 162.382812 200.507812 162.113281 C 200.238281 161.84375 200.035156 161.53125 199.886719 161.179688 C 199.742188 160.828125 199.671875 160.460938 199.671875 160.082031 C 199.671875 159.699219 199.742188 159.335938 199.886719 158.984375 C 200.035156 158.628906 200.238281 158.320312 200.507812 158.050781 C 200.777344 157.78125 201.085938 157.574219 201.433594 157.429688 C 201.785156 157.28125 202.148438 157.210938 202.527344 157.210938 C 202.910156 157.210938 203.273438 157.28125 203.625 157.429688 C 203.972656 157.574219 204.28125 157.78125 204.550781 158.050781 C 204.820312 158.320312 205.023438 158.628906 205.171875 158.984375 C 205.316406 159.335938 205.386719 159.699219 205.386719 160.082031 Z M 205.386719 160.082031 " fill-opacity="1" fill-rule="nonzero"/><g clip-path="url(#b90f32086a)"><path fill="#2c6871" d="M 176.035156 178.40625 L 163.410156 178.40625 C 163.207031 178.40625 163.011719 178.367188 162.824219 178.289062 C 162.636719 178.214844 162.46875 178.105469 162.324219 177.964844 C 162.179688 177.820312 162.070312 177.660156 161.992188 177.472656 C 161.914062 177.289062 161.875 177.097656 161.875 176.898438 L 161.875 164.816406 C 161.875 164.617188 161.914062 164.425781 161.992188 164.242188 C 162.070312 164.054688 162.179688 163.894531 162.324219 163.75 C 162.46875 163.609375 162.636719 163.5 162.824219 163.425781 C 163.011719 163.347656 163.207031 163.308594 163.410156 163.308594 C 163.613281 163.308594 163.808594 163.347656 163.996094 163.425781 C 164.183594 163.5 164.351562 163.609375 164.496094 163.75 C 164.640625 163.894531 164.75 164.054688 164.828125 164.242188 C 164.90625 164.425781 164.945312 164.617188 164.945312 164.816406 L 164.945312 175.390625 L 176.035156 175.390625 C 176.238281 175.390625 176.433594 175.429688 176.621094 175.503906 C 176.808594 175.582031 176.976562 175.691406 177.117188 175.832031 C 177.261719 175.972656 177.375 176.136719 177.453125 176.320312 C 177.527344 176.503906 177.566406 176.699219 177.566406 176.898438 C 177.566406 177.097656 177.527344 177.289062 177.453125 177.472656 C 177.375 177.660156 177.261719 177.820312 177.117188 177.964844 C 176.976562 178.105469 176.808594 178.214844 176.621094 178.289062 C 176.433594 178.367188 176.238281 178.40625 176.035156 178.40625 Z M 176.035156 178.40625 " fill-opacity="1" fill-rule="nonzero"/></g><g fill="#2c6871" fill-opacity="1"><g transform="translate(144.681407, 222.699777)"><g><path d="M 25.96875 0 L 22.976562 -19.402344 L 18.761719 -19.402344 L 13.496094 -7.484375 L 8.230469 -19.402344 L 4.046875 -19.402344 L 0.996094 0 L 5.265625 0 L 7.179688 -12.636719 L 12.972656 -0.0273438 L 13.996094 -0.0273438 L 19.789062 -12.636719 L 21.703125 0 Z M 25.96875 0 "/></g></g></g><g fill="#2c6871" fill-opacity="1"><g transform="translate(171.703027, 222.699777)"><g><path d="M 15.078125 0 L 19.652344 0 L 11.808594 -19.402344 L 7.84375 -19.402344 L 0.222656 0 L 4.683594 0 L 6.015625 -3.660156 L 13.71875 -3.660156 Z M 9.867188 -14.273438 L 12.417969 -7.316406 L 7.316406 -7.316406 Z M 9.867188 -14.273438 "/></g></g></g><g fill="#2c6871" fill-opacity="1"><g transform="translate(191.602021, 222.699777)"><g><path d="M 18.375 -19.402344 L 13.886719 -19.402344 L 9.394531 -11.613281 L 4.933594 -19.402344 L 0.472656 -19.402344 L 7.234375 -7.84375 L 7.234375 0 L 11.53125 0 L 11.53125 -7.816406 Z M 18.375 -19.402344 "/></g></g></g><g fill="#2c6871" fill-opacity="1"><g transform="translate(210.420151, 222.699777)"><g><path d="M 15.078125 0 L 19.652344 0 L 11.808594 -19.402344 L 7.84375 -19.402344 L 0.222656 0 L 4.683594 0 L 6.015625 -3.660156 L 13.71875 -3.660156 Z M 9.867188 -14.273438 L 12.417969 -7.316406 L 7.316406 -7.316406 Z M 9.867188 -14.273438 "/></g></g></g><g fill="#2c6871" fill-opacity="1"><g transform="translate(99.042416, 241.990471)"><g><path d="M 3.753906 -7.59375 L 1.03125 -7.59375 L 1.03125 0 L 1.984375 0 L 1.984375 -2.722656 L 3.753906 -2.722656 C 5.195312 -2.722656 6.269531 -3.765625 6.269531 -5.152344 C 6.269531 -6.554688 5.1875 -7.59375 3.753906 -7.59375 Z M 3.710938 -3.644531 L 1.984375 -3.644531 L 1.984375 -6.671875 L 3.710938 -6.671875 C 4.632812 -6.671875 5.304688 -6.023438 5.304688 -5.152344 C 5.304688 -4.285156 4.632812 -3.644531 3.710938 -3.644531 Z M 3.710938 -3.644531 "/></g></g></g><g fill="#2c6871" fill-opacity="1"><g transform="translate(107.363758, 241.990471)"><g><path d="M 4.492188 0.128906 C 6.792969 0.128906 8.460938 -1.550781 8.460938 -3.785156 C 8.460938 -6.03125 6.792969 -7.714844 4.492188 -7.714844 C 2.191406 -7.714844 0.511719 -6.03125 0.511719 -3.785156 C 0.511719 -1.550781 2.191406 0.128906 4.492188 0.128906 Z M 4.492188 -0.804688 C 2.765625 -0.804688 1.488281 -2.09375 1.488281 -3.785156 C 1.488281 -5.488281 2.765625 -6.78125 4.492188 -6.78125 C 6.21875 -6.78125 7.496094 -5.5 7.496094 -3.785156 C 7.496094 -2.082031 6.21875 -0.804688 4.492188 -0.804688 Z M 4.492188 -0.804688 "/></g></g></g><g fill="#2c6871" fill-opacity="1"><g transform="translate(118.060961, 241.990471)"><g><path d="M 4.40625 0.121094 C 6.195312 0.121094 7.605469 -0.953125 8.039062 -2.667969 L 7.074219 -2.667969 C 6.671875 -1.507812 5.683594 -0.8125 4.40625 -0.8125 C 2.710938 -0.8125 1.488281 -2.039062 1.488281 -3.785156 C 1.488281 -5.535156 2.710938 -6.78125 4.40625 -6.78125 C 5.652344 -6.78125 6.628906 -6.121094 7.03125 -5.023438 L 8.007812 -5.023438 C 7.574219 -6.660156 6.164062 -7.703125 4.40625 -7.703125 C 2.148438 -7.703125 0.511719 -6.066406 0.511719 -3.785156 C 0.511719 -1.519531 2.148438 0.121094 4.40625 0.121094 Z M 4.40625 0.121094 "/></g></g></g><g fill="#2c6871" fill-opacity="1"><g transform="translate(128.183181, 241.990471)"><g><path d="M 5.664062 0 L 6.890625 0 L 3.863281 -3.9375 L 6.640625 -7.59375 L 5.425781 -7.59375 L 2.996094 -4.363281 L 1.984375 -4.363281 L 1.984375 -7.59375 L 1.03125 -7.59375 L 1.03125 0 L 1.984375 0 L 1.984375 -3.472656 L 2.996094 -3.472656 Z M 5.664062 0 "/></g></g></g><g fill="#2c6871" fill-opacity="1"><g transform="translate(136.77574, 241.990471)"><g><path d="M 1.984375 -0.910156 L 1.984375 -3.460938 L 5.046875 -3.460938 L 5.046875 -4.339844 L 1.984375 -4.339844 L 1.984375 -6.683594 L 5.328125 -6.683594 L 5.328125 -7.59375 L 1.03125 -7.59375 L 1.03125 0 L 5.445312 0 L 5.445312 -0.910156 Z M 1.984375 -0.910156 "/></g></g></g><g fill="#2c6871" fill-opacity="1"><g transform="translate(144.478705, 241.990471)"><g><path d="M 5.792969 -7.59375 L 0.226562 -7.59375 L 0.226562 -6.695312 L 2.539062 -6.695312 L 2.539062 0 L 3.484375 0 L 3.484375 -6.695312 L 5.792969 -6.695312 Z M 5.792969 -7.59375 "/></g></g></g><g fill="#2c6871" fill-opacity="1"><g transform="translate(152.214222, 241.990471)"><g/></g></g><g fill="#2c6871" fill-opacity="1"><g transform="translate(156.760229, 241.990471)"><g><path d="M 9.894531 0 L 8.636719 -7.59375 L 7.691406 -7.59375 L 5.175781 -2.019531 L 2.667969 -7.59375 L 1.746094 -7.59375 L 0.464844 0 L 1.441406 0 L 2.441406 -5.925781 L 5.054688 -0.183594 L 5.316406 -0.183594 L 7.929688 -5.925781 L 8.917969 0 Z M 9.894531 0 "/></g></g></g><g fill="#2c6871" fill-opacity="1"><g transform="translate(168.84606, 241.990471)"><g><path d="M 4.492188 0.128906 C 6.792969 0.128906 8.460938 -1.550781 8.460938 -3.785156 C 8.460938 -6.03125 6.792969 -7.714844 4.492188 -7.714844 C 2.191406 -7.714844 0.511719 -6.03125 0.511719 -3.785156 C 0.511719 -1.550781 2.191406 0.128906 4.492188 0.128906 Z M 4.492188 -0.804688 C 2.765625 -0.804688 1.488281 -2.09375 1.488281 -3.785156 C 1.488281 -5.488281 2.765625 -6.78125 4.492188 -6.78125 C 6.21875 -6.78125 7.496094 -5.5 7.496094 -3.785156 C 7.496094 -2.082031 6.21875 -0.804688 4.492188 -0.804688 Z M 4.492188 -0.804688 "/></g></g></g><g fill="#2c6871" fill-opacity="1"><g transform="translate(179.543265, 241.990471)"><g><path d="M 6.152344 -7.59375 L 6.152344 -1.734375 L 1.898438 -7.59375 L 1.03125 -7.59375 L 1.03125 0 L 1.964844 0 L 1.964844 -5.925781 L 6.28125 0 L 7.085938 0 L 7.085938 -7.59375 Z M 6.152344 -7.59375 "/></g></g></g><g fill="#2c6871" fill-opacity="1"><g transform="translate(189.37257, 241.990471)"><g><path d="M 1.984375 -0.910156 L 1.984375 -3.460938 L 5.046875 -3.460938 L 5.046875 -4.339844 L 1.984375 -4.339844 L 1.984375 -6.683594 L 5.328125 -6.683594 L 5.328125 -7.59375 L 1.03125 -7.59375 L 1.03125 0 L 5.445312 0 L 5.445312 -0.910156 Z M 1.984375 -0.910156 "/></g></g></g><g fill="#2c6871" fill-opacity="1"><g transform="translate(197.075535, 241.990471)"><g><path d="M 6.855469 -7.59375 L 5.816406 -7.59375 L 3.570312 -3.917969 L 1.335938 -7.59375 L 0.292969 -7.59375 L 3.070312 -3.027344 L 3.070312 0 L 4.058594 0 L 4.058594 -3.027344 Z M 6.855469 -7.59375 "/></g></g></g><g fill="#2c6871" fill-opacity="1"><g transform="translate(205.917616, 241.990471)"><g/></g></g><g fill="#2c6871" fill-opacity="1"><g transform="translate(210.463624, 241.990471)"><g><path d="M 9.894531 0 L 8.636719 -7.59375 L 7.691406 -7.59375 L 5.175781 -2.019531 L 2.667969 -7.59375 L 1.746094 -7.59375 L 0.464844 0 L 1.441406 0 L 2.441406 -5.925781 L 5.054688 -0.183594 L 5.316406 -0.183594 L 7.929688 -5.925781 L 8.917969 0 Z M 9.894531 0 "/></g></g></g><g fill="#2c6871" fill-opacity="1"><g transform="translate(222.549459, 241.990471)"><g><path d="M 6.335938 0 L 7.367188 0 L 4.175781 -7.59375 L 3.289062 -7.59375 L 0.183594 0 L 1.195312 0 L 1.929688 -1.8125 L 5.585938 -1.8125 Z M 3.742188 -6.28125 L 5.230469 -2.691406 L 2.289062 -2.691406 Z M 3.742188 -6.28125 "/></g></g></g><g fill="#2c6871" fill-opacity="1"><g transform="translate(231.814639, 241.990471)"><g><path d="M 6.152344 -7.59375 L 6.152344 -1.734375 L 1.898438 -7.59375 L 1.03125 -7.59375 L 1.03125 0 L 1.964844 0 L 1.964844 -5.925781 L 6.28125 0 L 7.085938 0 L 7.085938 -7.59375 Z M 6.152344 -7.59375 "/></g></g></g><g fill="#2c6871" fill-opacity="1"><g transform="translate(241.643944, 241.990471)"><g><path d="M 6.335938 0 L 7.367188 0 L 4.175781 -7.59375 L 3.289062 -7.59375 L 0.183594 0 L 1.195312 0 L 1.929688 -1.8125 L 5.585938 -1.8125 Z M 3.742188 -6.28125 L 5.230469 -2.691406 L 2.289062 -2.691406 Z M 3.742188 -6.28125 "/></g></g></g><g fill="#2c6871" fill-opacity="1"><g transform="translate(250.909116, 241.990471)"><g><path d="M 4.101562 -3.765625 L 4.101562 -2.863281 L 7.128906 -2.863281 C 6.855469 -1.628906 5.761719 -0.804688 4.371094 -0.804688 C 2.65625 -0.804688 1.488281 -2.027344 1.488281 -3.785156 C 1.488281 -5.535156 2.691406 -6.769531 4.371094 -6.769531 C 5.652344 -6.769531 6.738281 -6.042969 7.0625 -4.9375 L 8.050781 -4.9375 C 7.714844 -6.5625 6.171875 -7.703125 4.351562 -7.703125 C 2.136719 -7.703125 0.519531 -6.042969 0.519531 -3.785156 C 0.519531 -1.53125 2.136719 0.128906 4.371094 0.128906 C 6.5625 0.128906 8.125 -1.476562 8.167969 -3.765625 Z M 4.101562 -3.765625 "/></g></g></g><g fill="#2c6871" fill-opacity="1"><g transform="translate(261.270002, 241.990471)"><g><path d="M 1.984375 -0.910156 L 1.984375 -3.460938 L 5.046875 -3.460938 L 5.046875 -4.339844 L 1.984375 -4.339844 L 1.984375 -6.683594 L 5.328125 -6.683594 L 5.328125 -7.59375 L 1.03125 -7.59375 L 1.03125 0 L 5.445312 0 L 5.445312 -0.910156 Z M 1.984375 -0.910156 "/></g></g></g><g fill="#2c6871" fill-opacity="1"><g transform="translate(268.972968, 241.990471)"><g><path d="M 5.457031 0 L 6.53125 0 L 4.707031 -3.082031 C 5.707031 -3.363281 6.390625 -4.199219 6.390625 -5.273438 C 6.390625 -6.617188 5.339844 -7.59375 3.917969 -7.59375 L 1.03125 -7.59375 L 1.03125 0 L 1.984375 0 L 1.984375 -2.960938 L 3.710938 -2.960938 Z M 1.984375 -6.683594 L 3.863281 -6.683594 C 4.796875 -6.683594 5.414062 -6.085938 5.414062 -5.273438 C 5.414062 -4.460938 4.796875 -3.875 3.863281 -3.875 L 1.984375 -3.875 Z M 1.984375 -6.683594 "/></g></g></g></svg>