<svg xmlns="http://www.w3.org/2000/svg" xmlns:xlink="http://www.w3.org/1999/xlink" width="500" height="500" preserveAspectRatio="xMidYMid meet" version="1.0" viewBox="0 0 375 375" zoomAndPan="magnify"><defs><clipPath id="cf816002ee"><path d="M 135.59375 100.003906 L 239 100.003906 L 239 190 L 135.59375 190 Z M 135.59375 100.003906" clip-rule="nonzero"/></clipPath><clipPath id="57763f622b"><path d="M 145.859375 154.804688 L 171.359375 154.804688 L 171.359375 179.554688 L 145.859375 179.554688 Z M 145.859375 154.804688" clip-rule="nonzero"/></clipPath></defs><g clip-path="url(#cf816002ee)"><path fill="#2c6871" fill-opacity="1" fill-rule="nonzero" d="M 209.402344 109.035156 L 222.15625 109.035156 C 222.628906 109.035156 223.09375 109.082031 223.554688 109.175781 C 224.015625 109.265625 224.464844 109.402344 224.898438 109.585938 C 225.332031 109.765625 225.746094 109.988281 226.136719 110.25 C 226.527344 110.511719 226.890625 110.8125 227.222656 111.144531 C 227.554688 111.480469 227.851562 111.84375 228.113281 112.238281 C 228.375 112.628906 228.597656 113.046875 228.777344 113.480469 C 228.957031 113.917969 229.09375 114.367188 229.183594 114.832031 C 229.277344 115.296875 229.320312 115.765625 229.320312 116.238281 L 229.320312 132.386719 C 229.320312 133.597656 229.320312 134.507812 228.71875 135.722656 L 230.527344 135.722656 C 236.65625 135.722656 238.980469 139.359375 238.980469 143.910156 L 238.980469 155.128906 C 238.980469 159.679688 237.257812 163.621094 230.527344 163.621094 L 228.71875 163.621094 C 229.320312 164.53125 229.320312 165.742188 229.320312 166.957031 L 229.320312 182.792969 C 229.320312 183.265625 229.277344 183.734375 229.183594 184.195312 C 229.09375 184.660156 228.957031 185.109375 228.777344 185.546875 C 228.597656 185.984375 228.375 186.398438 228.113281 186.792969 C 227.851562 187.183594 227.554688 187.550781 227.222656 187.882812 C 226.890625 188.21875 226.527344 188.515625 226.136719 188.777344 C 225.746094 189.042969 225.332031 189.261719 224.898438 189.445312 C 224.464844 189.625 224.015625 189.761719 223.554688 189.855469 C 223.09375 189.945312 222.628906 189.992188 222.15625 189.992188 L 141.902344 189.992188 C 141.5 189.992188 141.097656 189.949219 140.699219 189.871094 C 140.300781 189.789062 139.914062 189.671875 139.539062 189.515625 C 139.164062 189.359375 138.808594 189.167969 138.472656 188.941406 C 138.132812 188.714844 137.820312 188.457031 137.535156 188.167969 C 137.246094 187.878906 136.992188 187.566406 136.765625 187.226562 C 136.539062 186.890625 136.347656 186.53125 136.191406 186.15625 C 136.035156 185.78125 135.914062 185.390625 135.835938 184.992188 C 135.753906 184.59375 135.714844 184.1875 135.710938 183.78125 L 135.710938 116.539062 C 135.710938 116.046875 135.761719 115.5625 135.859375 115.078125 C 135.953125 114.59375 136.097656 114.125 136.285156 113.671875 C 136.472656 113.21875 136.703125 112.785156 136.976562 112.375 C 137.25 111.96875 137.558594 111.589844 137.902344 111.242188 C 138.25 110.890625 138.628906 110.582031 139.035156 110.308594 C 139.441406 110.035156 139.871094 109.800781 140.324219 109.613281 C 140.777344 109.421875 141.242188 109.28125 141.722656 109.183594 C 142.203125 109.085938 142.6875 109.035156 143.179688 109.035156 L 183.746094 109.035156 L 202.460938 100.242188 C 203.667969 99.632812 205.175781 100.242188 205.78125 101.453125 Z M 209.402344 109.035156"/></g><path fill="#cbd2d8" fill-opacity="1" fill-rule="nonzero" d="M 210.109375 135.847656 L 222.078125 135.796875 C 223.285156 135.492188 224.492188 133.902344 224.492188 132.386719 L 224.492188 123.894531 L 149.644531 123.894531 C 148.132812 123.894531 146.925781 122.679688 146.925781 121.46875 C 146.925781 121.105469 146.996094 120.757812 147.132812 120.425781 C 147.269531 120.089844 147.46875 119.792969 147.722656 119.539062 C 147.976562 119.28125 148.269531 119.085938 148.601562 118.945312 C 148.9375 118.808594 149.28125 118.738281 149.644531 118.738281 L 163.527344 118.738281 L 173.183594 114.191406 L 144.160156 114.191406 C 143.722656 114.195312 143.300781 114.28125 142.894531 114.453125 C 142.492188 114.621094 142.132812 114.863281 141.824219 115.175781 C 141.511719 115.488281 141.273438 115.847656 141.101562 116.253906 C 140.933594 116.660156 140.847656 117.085938 140.84375 117.527344 L 140.84375 181.816406 C 140.847656 182.257812 140.933594 182.679688 141.101562 183.089844 C 141.273438 183.496094 141.511719 183.855469 141.824219 184.167969 C 142.132812 184.476562 142.492188 184.71875 142.894531 184.890625 C 143.300781 185.0625 143.722656 185.148438 144.160156 185.152344 L 221.171875 185.152344 C 221.613281 185.148438 222.035156 185.0625 222.4375 184.890625 C 222.84375 184.71875 223.199219 184.476562 223.511719 184.167969 C 223.820312 183.855469 224.0625 183.496094 224.230469 183.089844 C 224.402344 182.679688 224.488281 182.257812 224.492188 181.816406 L 224.492188 166.957031 C 224.488281 166.515625 224.402344 166.089844 224.230469 165.683594 C 224.0625 165.277344 223.820312 164.917969 223.511719 164.605469 C 223.199219 164.292969 222.84375 164.054688 222.4375 163.882812 C 222.035156 163.710938 221.613281 163.625 221.171875 163.621094 L 205.886719 163.621094 C 199.152344 163.621094 197.738281 159.980469 197.738281 155.128906 L 197.738281 143.910156 C 197.738281 136.328125 202.867188 135.847656 210.109375 135.847656 Z M 210.109375 135.847656"/><path fill="#8fffa8" fill-opacity="1" fill-rule="nonzero" d="M 175.296875 118.738281 L 208.496094 118.738281 L 202.160156 106.003906 Z M 175.296875 118.738281"/><path fill="#b0bbc4" fill-opacity="1" fill-rule="nonzero" d="M 214.230469 118.738281 L 224.492188 118.738281 L 224.492188 117.527344 C 224.488281 117.085938 224.402344 116.660156 224.230469 116.253906 C 224.0625 115.847656 223.820312 115.488281 223.511719 115.175781 C 223.199219 114.863281 222.84375 114.621094 222.4375 114.453125 C 222.035156 114.28125 221.613281 114.195312 221.171875 114.191406 L 211.816406 114.191406 Z M 214.230469 118.738281"/><path fill="#cbd2d8" fill-opacity="1" fill-rule="nonzero" d="M 230.527344 140.875 L 205.886719 140.875 C 204.074219 140.875 202.867188 142.089844 202.867188 143.910156 L 202.867188 155.128906 C 202.867188 156.949219 204.074219 158.464844 205.886719 158.464844 L 230.527344 158.464844 C 230.96875 158.460938 231.390625 158.375 231.792969 158.203125 C 232.199219 158.03125 232.558594 157.792969 232.867188 157.480469 C 233.179688 157.167969 233.417969 156.808594 233.589844 156.402344 C 233.757812 155.996094 233.84375 155.570312 233.847656 155.128906 L 233.847656 143.910156 C 233.847656 142.089844 232.339844 140.875 230.527344 140.875 Z M 230.527344 140.875"/><path fill="#2c6871" fill-opacity="1" fill-rule="nonzero" d="M 216.566406 149.671875 C 216.566406 149.976562 216.539062 150.28125 216.476562 150.582031 C 216.417969 150.882812 216.328125 151.175781 216.214844 151.457031 C 216.097656 151.742188 215.953125 152.007812 215.785156 152.265625 C 215.613281 152.519531 215.421875 152.753906 215.207031 152.972656 C 214.992188 153.1875 214.757812 153.382812 214.503906 153.550781 C 214.25 153.722656 213.980469 153.867188 213.699219 153.984375 C 213.417969 154.101562 213.128906 154.1875 212.828125 154.25 C 212.527344 154.308594 212.226562 154.339844 211.921875 154.339844 C 211.617188 154.339844 211.316406 154.308594 211.015625 154.25 C 210.714844 154.1875 210.425781 154.101562 210.144531 153.984375 C 209.863281 153.867188 209.59375 153.722656 209.339844 153.550781 C 209.085938 153.382812 208.851562 153.1875 208.636719 152.972656 C 208.421875 152.753906 208.230469 152.519531 208.058594 152.265625 C 207.890625 152.007812 207.746094 151.742188 207.628906 151.457031 C 207.515625 151.175781 207.425781 150.882812 207.367188 150.582031 C 207.308594 150.28125 207.277344 149.976562 207.277344 149.671875 C 207.277344 149.363281 207.308594 149.0625 207.367188 148.761719 C 207.425781 148.460938 207.515625 148.167969 207.628906 147.886719 C 207.746094 147.601562 207.890625 147.332031 208.058594 147.078125 C 208.230469 146.824219 208.421875 146.585938 208.636719 146.371094 C 208.851562 146.15625 209.085938 145.960938 209.339844 145.789062 C 209.59375 145.621094 209.863281 145.476562 210.144531 145.359375 C 210.425781 145.242188 210.714844 145.152344 211.015625 145.09375 C 211.316406 145.035156 211.617188 145.003906 211.921875 145.003906 C 212.226562 145.003906 212.527344 145.035156 212.828125 145.09375 C 213.128906 145.152344 213.417969 145.242188 213.699219 145.359375 C 213.980469 145.476562 214.25 145.621094 214.503906 145.789062 C 214.757812 145.960938 214.992188 146.15625 215.207031 146.371094 C 215.421875 146.585938 215.613281 146.824219 215.785156 147.078125 C 215.953125 147.332031 216.097656 147.601562 216.214844 147.886719 C 216.328125 148.167969 216.417969 148.460938 216.476562 148.761719 C 216.539062 149.0625 216.566406 149.363281 216.566406 149.671875 Z M 216.566406 149.671875"/><g clip-path="url(#57763f622b)"><path fill="#2c6871" fill-opacity="1" fill-rule="nonzero" d="M 168.867188 179.445312 L 148.355469 179.445312 C 148.023438 179.445312 147.707031 179.382812 147.398438 179.257812 C 147.09375 179.136719 146.824219 178.957031 146.589844 178.726562 C 146.359375 178.5 146.175781 178.234375 146.050781 177.933594 C 145.925781 177.632812 145.859375 177.320312 145.859375 176.996094 L 145.859375 157.367188 C 145.859375 157.042969 145.925781 156.730469 146.050781 156.429688 C 146.175781 156.128906 146.359375 155.863281 146.589844 155.632812 C 146.824219 155.40625 147.09375 155.226562 147.398438 155.105469 C 147.707031 154.980469 148.023438 154.917969 148.355469 154.917969 C 148.683594 154.917969 149.003906 154.980469 149.308594 155.105469 C 149.613281 155.226562 149.882812 155.40625 150.117188 155.632812 C 150.351562 155.863281 150.53125 156.128906 150.660156 156.429688 C 150.785156 156.730469 150.847656 157.042969 150.847656 157.367188 L 150.847656 174.546875 L 168.867188 174.546875 C 169.199219 174.546875 169.515625 174.609375 169.820312 174.734375 C 170.128906 174.855469 170.398438 175.035156 170.628906 175.265625 C 170.863281 175.492188 171.042969 175.757812 171.171875 176.058594 C 171.296875 176.359375 171.359375 176.671875 171.359375 176.996094 C 171.359375 177.320312 171.296875 177.632812 171.171875 177.933594 C 171.042969 178.234375 170.863281 178.5 170.628906 178.726562 C 170.398438 178.957031 170.128906 179.136719 169.820312 179.257812 C 169.515625 179.382812 169.199219 179.445312 168.867188 179.445312 Z M 168.867188 179.445312"/></g><g fill="#2c6871" fill-opacity="1"><g><g><path d="M 42.195312 0 L 37.332031 -31.523438 L 30.488281 -31.523438 L 21.929688 -12.160156 L 13.375 -31.523438 L 6.574219 -31.523438 L 1.621094 0 L 8.554688 0 L 11.664062 -20.535156 L 21.074219 -0.046875 L 22.742188 -0.046875 L 32.152344 -20.535156 L 35.261719 0 Z M 42.195312 0" transform="translate(117.930264, 251.452998)"/></g></g></g><g fill="#2c6871" fill-opacity="1"><g><g><path d="M 24.496094 0 L 31.929688 0 L 19.183594 -31.523438 L 12.746094 -31.523438 L 0.359375 0 L 7.609375 0 L 9.773438 -5.945312 L 22.292969 -5.945312 Z M 16.03125 -23.191406 L 20.175781 -11.890625 L 11.890625 -11.890625 Z M 16.03125 -23.191406" transform="translate(161.830274, 251.452998)"/></g></g></g><g fill="#2c6871" fill-opacity="1"><g><g><path d="M 29.855469 -31.523438 L 22.5625 -31.523438 L 15.265625 -18.867188 L 8.015625 -31.523438 L 0.765625 -31.523438 L 11.753906 -12.746094 L 11.753906 0 L 18.734375 0 L 18.734375 -12.699219 Z M 29.855469 -31.523438" transform="translate(194.158685, 251.452998)"/></g></g></g><g fill="#2c6871" fill-opacity="1"><g><g><path d="M 24.496094 0 L 31.929688 0 L 19.183594 -31.523438 L 12.746094 -31.523438 L 0.359375 0 L 7.609375 0 L 9.773438 -5.945312 L 22.292969 -5.945312 Z M 16.03125 -23.191406 L 20.175781 -11.890625 L 11.890625 -11.890625 Z M 16.03125 -23.191406" transform="translate(224.731098, 251.452998)"/></g></g></g><g fill="#2c6871" fill-opacity="1"><g><g><path d="M 6.101562 -12.339844 L 1.675781 -12.339844 L 1.675781 0 L 3.226562 0 L 3.226562 -4.425781 L 6.101562 -4.425781 C 8.445312 -4.425781 10.191406 -6.117188 10.191406 -8.375 C 10.191406 -10.648438 8.425781 -12.339844 6.101562 -12.339844 Z M 6.03125 -5.921875 L 3.226562 -5.921875 L 3.226562 -10.84375 L 6.03125 -10.84375 C 7.527344 -10.84375 8.621094 -9.785156 8.621094 -8.375 C 8.621094 -6.964844 7.527344 -5.921875 6.03125 -5.921875 Z M 6.03125 -5.921875" transform="translate(43.75914, 282.294357)"/></g></g></g><g fill="#2c6871" fill-opacity="1"><g><g><path d="M 7.300781 0.210938 C 11.035156 0.210938 13.75 -2.519531 13.75 -6.152344 C 13.75 -9.800781 11.035156 -12.535156 7.300781 -12.535156 C 3.5625 -12.535156 0.828125 -9.800781 0.828125 -6.152344 C 0.828125 -2.519531 3.5625 0.210938 7.300781 0.210938 Z M 7.300781 -1.304688 C 4.496094 -1.304688 2.414062 -3.402344 2.414062 -6.152344 C 2.414062 -8.921875 4.496094 -11.019531 7.300781 -11.019531 C 10.101562 -11.019531 12.183594 -8.9375 12.183594 -6.152344 C 12.183594 -3.386719 10.101562 -1.304688 7.300781 -1.304688 Z M 7.300781 -1.304688" transform="translate(57.281066, 282.294357)"/></g></g></g><g fill="#2c6871" fill-opacity="1"><g><g><path d="M 7.15625 0.195312 C 10.066406 0.195312 12.359375 -1.550781 13.0625 -4.335938 L 11.496094 -4.335938 C 10.84375 -2.449219 9.238281 -1.324219 7.15625 -1.324219 C 4.40625 -1.324219 2.414062 -3.316406 2.414062 -6.152344 C 2.414062 -8.992188 4.40625 -11.019531 7.15625 -11.019531 C 9.183594 -11.019531 10.773438 -9.945312 11.425781 -8.164062 L 13.011719 -8.164062 C 12.304688 -10.824219 10.015625 -12.515625 7.15625 -12.515625 C 3.492188 -12.515625 0.828125 -9.855469 0.828125 -6.152344 C 0.828125 -2.46875 3.492188 0.195312 7.15625 0.195312 Z M 7.15625 0.195312" transform="translate(74.663696, 282.294357)"/></g></g></g><g fill="#2c6871" fill-opacity="1"><g><g><path d="M 9.203125 0 L 11.195312 0 L 6.277344 -6.398438 L 10.789062 -12.339844 L 8.816406 -12.339844 L 4.867188 -7.085938 L 3.226562 -7.085938 L 3.226562 -12.339844 L 1.675781 -12.339844 L 1.675781 0 L 3.226562 0 L 3.226562 -5.640625 L 4.867188 -5.640625 Z M 9.203125 0" transform="translate(91.111994, 282.294357)"/></g></g></g><g fill="#2c6871" fill-opacity="1"><g><g><path d="M 3.226562 -1.480469 L 3.226562 -5.625 L 8.199219 -5.625 L 8.199219 -7.050781 L 3.226562 -7.050781 L 3.226562 -10.859375 L 8.65625 -10.859375 L 8.65625 -12.339844 L 1.675781 -12.339844 L 1.675781 0 L 8.851562 0 L 8.851562 -1.480469 Z M 3.226562 -1.480469" transform="translate(105.074639, 282.294357)"/></g></g></g><g fill="#2c6871" fill-opacity="1"><g><g><path d="M 9.414062 -12.339844 L 0.371094 -12.339844 L 0.371094 -10.878906 L 4.125 -10.878906 L 4.125 0 L 5.660156 0 L 5.660156 -10.878906 L 9.414062 -10.878906 Z M 9.414062 -12.339844" transform="translate(117.591723, 282.294357)"/></g></g></g><g fill="#2c6871" fill-opacity="1"><g><g><path d="M 16.078125 0 L 14.035156 -12.339844 L 12.5 -12.339844 L 8.410156 -3.277344 L 4.335938 -12.339844 L 2.839844 -12.339844 L 0.757812 0 L 2.34375 0 L 3.96875 -9.625 L 8.214844 -0.300781 L 8.640625 -0.300781 L 12.886719 -9.625 L 14.492188 0 Z M 16.078125 0" transform="translate(137.548825, 282.294357)"/></g></g></g><g fill="#2c6871" fill-opacity="1"><g><g><path d="M 7.300781 0.210938 C 11.035156 0.210938 13.75 -2.519531 13.75 -6.152344 C 13.75 -9.800781 11.035156 -12.535156 7.300781 -12.535156 C 3.5625 -12.535156 0.828125 -9.800781 0.828125 -6.152344 C 0.828125 -2.519531 3.5625 0.210938 7.300781 0.210938 Z M 7.300781 -1.304688 C 4.496094 -1.304688 2.414062 -3.402344 2.414062 -6.152344 C 2.414062 -8.921875 4.496094 -11.019531 7.300781 -11.019531 C 10.101562 -11.019531 12.183594 -8.9375 12.183594 -6.152344 C 12.183594 -3.386719 10.101562 -1.304688 7.300781 -1.304688 Z M 7.300781 -1.304688" transform="translate(157.187931, 282.294357)"/></g></g></g><g fill="#2c6871" fill-opacity="1"><g><g><path d="M 9.996094 -12.339844 L 9.996094 -2.820312 L 3.085938 -12.339844 L 1.675781 -12.339844 L 1.675781 0 L 3.191406 0 L 3.191406 -9.625 L 10.207031 0 L 11.511719 0 L 11.511719 -12.339844 Z M 9.996094 -12.339844" transform="translate(174.570563, 282.294357)"/></g></g></g><g fill="#2c6871" fill-opacity="1"><g><g><path d="M 3.226562 -1.480469 L 3.226562 -5.625 L 8.199219 -5.625 L 8.199219 -7.050781 L 3.226562 -7.050781 L 3.226562 -10.859375 L 8.65625 -10.859375 L 8.65625 -12.339844 L 1.675781 -12.339844 L 1.675781 0 L 8.851562 0 L 8.851562 -1.480469 Z M 3.226562 -1.480469" transform="translate(190.542883, 282.294357)"/></g></g></g><g fill="#2c6871" fill-opacity="1"><g><g><path d="M 11.140625 -12.339844 L 9.449219 -12.339844 L 5.800781 -6.363281 L 2.167969 -12.339844 L 0.476562 -12.339844 L 4.988281 -4.917969 L 4.988281 0 L 6.59375 0 L 6.59375 -4.917969 Z M 11.140625 -12.339844" transform="translate(203.059967, 282.294357)"/></g></g></g><g fill="#2c6871" fill-opacity="1"><g><g><path d="M 16.078125 0 L 14.035156 -12.339844 L 12.5 -12.339844 L 8.410156 -3.277344 L 4.335938 -12.339844 L 2.839844 -12.339844 L 0.757812 0 L 2.34375 0 L 3.96875 -9.625 L 8.214844 -0.300781 L 8.640625 -0.300781 L 12.886719 -9.625 L 14.492188 0 Z M 16.078125 0" transform="translate(224.815202, 282.294357)"/></g></g></g><g fill="#2c6871" fill-opacity="1"><g><g><path d="M 10.296875 0 L 11.972656 0 L 6.789062 -12.339844 L 5.34375 -12.339844 L 0.300781 0 L 1.9375 0 L 3.136719 -2.945312 L 9.078125 -2.945312 Z M 6.082031 -10.207031 L 8.496094 -4.371094 L 3.71875 -4.371094 Z M 6.082031 -10.207031" transform="translate(244.454315, 282.294357)"/></g></g></g><g fill="#2c6871" fill-opacity="1"><g><g><path d="M 9.996094 -12.339844 L 9.996094 -2.820312 L 3.085938 -12.339844 L 1.675781 -12.339844 L 1.675781 0 L 3.191406 0 L 3.191406 -9.625 L 10.207031 0 L 11.511719 0 L 11.511719 -12.339844 Z M 9.996094 -12.339844" transform="translate(259.50995, 282.294357)"/></g></g></g><g fill="#2c6871" fill-opacity="1"><g><g><path d="M 10.296875 0 L 11.972656 0 L 6.789062 -12.339844 L 5.34375 -12.339844 L 0.300781 0 L 1.9375 0 L 3.136719 -2.945312 L 9.078125 -2.945312 Z M 6.082031 -10.207031 L 8.496094 -4.371094 L 3.71875 -4.371094 Z M 6.082031 -10.207031" transform="translate(275.482271, 282.294357)"/></g></g></g><g fill="#2c6871" fill-opacity="1"><g><g><path d="M 6.664062 -6.117188 L 6.664062 -4.65625 L 11.582031 -4.65625 C 11.140625 -2.644531 9.363281 -1.304688 7.105469 -1.304688 C 4.320312 -1.304688 2.414062 -3.296875 2.414062 -6.152344 C 2.414062 -8.992188 4.371094 -11 7.105469 -11 C 9.183594 -11 10.949219 -9.820312 11.476562 -8.023438 L 13.082031 -8.023438 C 12.535156 -10.667969 10.03125 -12.515625 7.070312 -12.515625 C 3.472656 -12.515625 0.847656 -9.820312 0.847656 -6.152344 C 0.847656 -2.484375 3.472656 0.210938 7.105469 0.210938 C 10.667969 0.210938 13.203125 -2.398438 13.277344 -6.117188 Z M 6.664062 -6.117188" transform="translate(290.537893, 282.294357)"/></g></g></g><g fill="#2c6871" fill-opacity="1"><g><g><path d="M 3.226562 -1.480469 L 3.226562 -5.625 L 8.199219 -5.625 L 8.199219 -7.050781 L 3.226562 -7.050781 L 3.226562 -10.859375 L 8.65625 -10.859375 L 8.65625 -12.339844 L 1.675781 -12.339844 L 1.675781 0 L 8.851562 0 L 8.851562 -1.480469 Z M 3.226562 -1.480469" transform="translate(307.374017, 282.294357)"/></g></g></g><g fill="#2c6871" fill-opacity="1"><g><g><path d="M 8.867188 0 L 10.613281 0 L 7.652344 -5.007812 C 9.273438 -5.464844 10.382812 -6.824219 10.382812 -8.566406 C 10.382812 -10.753906 8.675781 -12.339844 6.363281 -12.339844 L 1.675781 -12.339844 L 1.675781 0 L 3.226562 0 L 3.226562 -4.8125 L 6.03125 -4.8125 Z M 3.226562 -10.859375 L 6.277344 -10.859375 C 7.792969 -10.859375 8.796875 -9.890625 8.796875 -8.566406 C 8.796875 -7.246094 7.792969 -6.292969 6.277344 -6.292969 L 3.226562 -6.292969 Z M 3.226562 -10.859375" transform="translate(319.8911, 282.294357)"/></g></g></g></svg>