<svg xmlns="http://www.w3.org/2000/svg" xmlns:xlink="http://www.w3.org/1999/xlink" width="500" height="500" preserveAspectRatio="xMidYMid meet" version="1.0" viewBox="0 0 375 375" zoomAndPan="magnify"><defs><clipPath id="dbf67e6b1d"><path d="M 50 68.492188 L 324 68.492188 L 324 306.914062 L 50 306.914062 Z M 50 68.492188" clip-rule="nonzero"/></clipPath><clipPath id="9625531175"><path d="M 77.195312 213.671875 L 144.746094 213.671875 L 144.746094 279 L 77.195312 279 Z M 77.195312 213.671875" clip-rule="nonzero"/></clipPath></defs><g clip-path="url(#dbf67e6b1d)"><path fill="#2c6871" fill-opacity="1" fill-rule="nonzero" d="M 245.519531 92.417969 L 279.308594 92.417969 C 279.929688 92.417969 280.550781 92.449219 281.167969 92.511719 C 281.789062 92.570312 282.402344 92.664062 283.011719 92.785156 C 283.621094 92.90625 284.222656 93.058594 284.820312 93.242188 C 285.414062 93.421875 286 93.632812 286.574219 93.871094 C 287.148438 94.113281 287.707031 94.378906 288.257812 94.671875 C 288.804688 94.96875 289.335938 95.289062 289.855469 95.636719 C 290.371094 95.984375 290.871094 96.355469 291.351562 96.75 C 291.832031 97.148438 292.289062 97.566406 292.730469 98.007812 C 293.171875 98.449219 293.585938 98.914062 293.980469 99.394531 C 294.375 99.878906 294.746094 100.378906 295.089844 100.898438 C 295.4375 101.417969 295.753906 101.953125 296.046875 102.503906 C 296.339844 103.054688 296.605469 103.621094 296.84375 104.199219 C 297.082031 104.773438 297.292969 105.363281 297.472656 105.960938 C 297.652344 106.558594 297.804688 107.164062 297.925781 107.777344 C 298.046875 108.386719 298.136719 109.003906 298.199219 109.628906 C 298.257812 110.25 298.289062 110.871094 298.289062 111.496094 L 298.289062 154.277344 C 298.289062 157.488281 298.289062 159.898438 296.691406 163.113281 L 301.488281 163.113281 C 317.71875 163.113281 323.875 172.753906 323.875 184.804688 L 323.875 214.527344 C 323.875 226.578125 319.316406 237.019531 301.488281 237.019531 L 296.691406 237.019531 C 298.289062 239.429688 298.289062 242.644531 298.289062 245.859375 L 298.289062 287.808594 C 298.289062 288.433594 298.257812 289.054688 298.199219 289.679688 C 298.136719 290.300781 298.046875 290.917969 297.925781 291.53125 C 297.804688 292.140625 297.652344 292.746094 297.472656 293.34375 C 297.292969 293.941406 297.082031 294.53125 296.84375 295.105469 C 296.605469 295.683594 296.339844 296.25 296.046875 296.800781 C 295.753906 297.351562 295.4375 297.886719 295.089844 298.402344 C 294.746094 298.921875 294.375 299.425781 293.980469 299.90625 C 293.585938 300.390625 293.167969 300.851562 292.730469 301.292969 C 292.289062 301.734375 291.832031 302.15625 291.351562 302.550781 C 290.871094 302.949219 290.371094 303.320312 289.855469 303.667969 C 289.335938 304.011719 288.804688 304.332031 288.257812 304.628906 C 287.707031 304.921875 287.144531 305.1875 286.570312 305.429688 C 285.996094 305.667969 285.414062 305.878906 284.816406 306.058594 C 284.222656 306.242188 283.621094 306.390625 283.011719 306.515625 C 282.402344 306.636719 281.789062 306.726562 281.167969 306.789062 C 280.550781 306.847656 279.929688 306.878906 279.308594 306.878906 L 66.710938 306.878906 C 66.175781 306.878906 65.640625 306.851562 65.109375 306.796875 C 64.574219 306.742188 64.042969 306.664062 63.519531 306.554688 C 62.992188 306.449219 62.472656 306.320312 61.960938 306.160156 C 61.449219 306.003906 60.945312 305.824219 60.449219 305.617188 C 59.953125 305.410156 59.46875 305.179688 58.996094 304.925781 C 58.523438 304.671875 58.066406 304.394531 57.617188 304.09375 C 57.171875 303.792969 56.742188 303.472656 56.328125 303.132812 C 55.914062 302.789062 55.515625 302.429688 55.136719 302.050781 C 54.757812 301.667969 54.398438 301.269531 54.054688 300.855469 C 53.714844 300.4375 53.394531 300.007812 53.097656 299.558594 C 52.796875 299.113281 52.523438 298.652344 52.269531 298.175781 C 52.015625 297.703125 51.785156 297.214844 51.578125 296.71875 C 51.371094 296.222656 51.1875 295.714844 51.03125 295.199219 C 50.875 294.683594 50.742188 294.164062 50.632812 293.636719 C 50.527344 293.109375 50.445312 292.574219 50.390625 292.039062 C 50.335938 291.503906 50.308594 290.964844 50.304688 290.425781 L 50.304688 112.300781 C 50.308594 111.648438 50.339844 111 50.40625 110.355469 C 50.472656 109.707031 50.566406 109.0625 50.695312 108.425781 C 50.824219 107.789062 50.980469 107.160156 51.171875 106.535156 C 51.359375 105.914062 51.578125 105.304688 51.828125 104.703125 C 52.074219 104.101562 52.351562 103.515625 52.65625 102.941406 C 52.964844 102.367188 53.296875 101.808594 53.65625 101.269531 C 54.015625 100.730469 54.402344 100.207031 54.8125 99.703125 C 55.222656 99.203125 55.65625 98.71875 56.117188 98.261719 C 56.574219 97.800781 57.050781 97.363281 57.550781 96.949219 C 58.050781 96.539062 58.570312 96.148438 59.109375 95.789062 C 59.648438 95.425781 60.203125 95.089844 60.773438 94.785156 C 61.34375 94.476562 61.925781 94.199219 62.523438 93.949219 C 63.121094 93.699219 63.730469 93.476562 64.351562 93.289062 C 64.96875 93.097656 65.597656 92.9375 66.230469 92.808594 C 66.867188 92.683594 67.503906 92.585938 68.148438 92.519531 C 68.792969 92.453125 69.4375 92.417969 70.085938 92.417969 L 177.558594 92.417969 L 227.128906 69.121094 C 230.328125 67.511719 234.328125 69.121094 235.925781 72.332031 Z M 245.519531 92.417969"/></g><path fill="#cbd2d8" fill-opacity="1" fill-rule="nonzero" d="M 247.398438 163.449219 L 279.101562 163.3125 C 282.296875 162.511719 285.496094 158.292969 285.496094 154.277344 L 285.496094 131.78125 L 87.210938 131.78125 C 83.214844 131.78125 80.015625 128.566406 80.015625 125.355469 C 80.015625 124.878906 80.0625 124.410156 80.15625 123.945312 C 80.246094 123.480469 80.382812 123.027344 80.566406 122.589844 C 80.746094 122.148438 80.96875 121.734375 81.230469 121.339844 C 81.492188 120.941406 81.789062 120.578125 82.125 120.242188 C 82.457031 119.90625 82.820312 119.605469 83.214844 119.34375 C 83.609375 119.078125 84.023438 118.855469 84.457031 118.675781 C 84.894531 118.492188 85.34375 118.355469 85.808594 118.261719 C 86.273438 118.171875 86.738281 118.125 87.210938 118.125 L 123.992188 118.125 L 149.574219 106.074219 L 72.691406 106.074219 C 72.117188 106.078125 71.546875 106.140625 70.984375 106.257812 C 70.417969 106.375 69.871094 106.542969 69.339844 106.769531 C 68.808594 106.992188 68.304688 107.265625 67.824219 107.589844 C 67.347656 107.910156 66.90625 108.277344 66.496094 108.6875 C 66.089844 109.09375 65.726562 109.539062 65.40625 110.019531 C 65.082031 110.5 64.8125 111.007812 64.589844 111.542969 C 64.367188 112.074219 64.195312 112.625 64.082031 113.191406 C 63.964844 113.757812 63.902344 114.332031 63.898438 114.910156 L 63.898438 285.222656 C 63.902344 285.800781 63.964844 286.375 64.082031 286.941406 C 64.195312 287.507812 64.367188 288.058594 64.589844 288.589844 C 64.8125 289.125 65.082031 289.632812 65.40625 290.113281 C 65.726562 290.59375 66.089844 291.039062 66.496094 291.449219 C 66.90625 291.855469 67.347656 292.222656 67.824219 292.546875 C 68.304688 292.867188 68.808594 293.140625 69.339844 293.363281 C 69.871094 293.589844 70.417969 293.757812 70.984375 293.875 C 71.546875 293.992188 72.117188 294.054688 72.691406 294.058594 L 276.703125 294.058594 C 277.277344 294.054688 277.847656 293.992188 278.414062 293.875 C 278.976562 293.757812 279.523438 293.589844 280.054688 293.363281 C 280.585938 293.140625 281.089844 292.867188 281.570312 292.546875 C 282.046875 292.222656 282.492188 291.855469 282.898438 291.445312 C 283.304688 291.039062 283.667969 290.59375 283.992188 290.113281 C 284.3125 289.632812 284.582031 289.125 284.804688 288.589844 C 285.027344 288.058594 285.199219 287.507812 285.316406 286.941406 C 285.429688 286.375 285.492188 285.800781 285.496094 285.222656 L 285.496094 245.859375 C 285.492188 245.277344 285.429688 244.707031 285.316406 244.140625 C 285.199219 243.570312 285.027344 243.023438 284.804688 242.488281 C 284.582031 241.953125 284.3125 241.449219 283.992188 240.96875 C 283.667969 240.488281 283.304688 240.042969 282.898438 239.632812 C 282.492188 239.222656 282.046875 238.855469 281.570312 238.535156 C 281.089844 238.210938 280.585938 237.9375 280.054688 237.714844 C 279.523438 237.492188 278.976562 237.320312 278.414062 237.203125 C 277.847656 237.085938 277.277344 237.027344 276.703125 237.019531 L 236.207031 237.019531 C 218.367188 237.019531 214.617188 227.378906 214.617188 214.527344 L 214.617188 184.804688 C 214.617188 164.71875 228.210938 163.449219 247.398438 163.449219 Z M 247.398438 163.449219"/><path fill="#8fffa8" fill-opacity="1" fill-rule="nonzero" d="M 155.171875 118.125 L 243.121094 118.125 L 226.332031 84.390625 Z M 155.171875 118.125"/><path fill="#b0bbc4" fill-opacity="1" fill-rule="nonzero" d="M 258.3125 118.125 L 285.496094 118.125 L 285.496094 114.910156 C 285.492188 114.332031 285.429688 113.757812 285.316406 113.191406 C 285.199219 112.625 285.027344 112.074219 284.804688 111.542969 C 284.582031 111.007812 284.3125 110.5 283.992188 110.019531 C 283.667969 109.539062 283.304688 109.09375 282.898438 108.6875 C 282.492188 108.277344 282.046875 107.910156 281.570312 107.589844 C 281.089844 107.265625 280.585938 106.992188 280.054688 106.769531 C 279.523438 106.542969 278.976562 106.375 278.414062 106.257812 C 277.847656 106.140625 277.277344 106.078125 276.703125 106.074219 L 251.917969 106.074219 Z M 258.3125 118.125"/><path fill="#cbd2d8" fill-opacity="1" fill-rule="nonzero" d="M 301.488281 176.769531 L 236.207031 176.769531 C 231.410156 176.769531 228.210938 179.984375 228.210938 184.804688 L 228.210938 214.527344 C 228.210938 219.347656 231.410156 223.363281 236.207031 223.363281 L 301.488281 223.363281 C 302.0625 223.359375 302.632812 223.296875 303.199219 223.179688 C 303.761719 223.0625 304.308594 222.894531 304.839844 222.671875 C 305.371094 222.445312 305.875 222.171875 306.355469 221.851562 C 306.832031 221.527344 307.277344 221.160156 307.683594 220.753906 C 308.089844 220.34375 308.453125 219.898438 308.777344 219.417969 C 309.097656 218.9375 309.367188 218.429688 309.59375 217.894531 C 309.816406 217.363281 309.984375 216.8125 310.101562 216.246094 C 310.214844 215.679688 310.277344 215.105469 310.28125 214.527344 L 310.28125 184.804688 C 310.28125 179.984375 306.285156 176.769531 301.488281 176.769531 Z M 301.488281 176.769531"/><path fill="#2c6871" fill-opacity="1" fill-rule="nonzero" d="M 264.5 200.066406 C 264.5 200.878906 264.421875 201.683594 264.265625 202.480469 C 264.105469 203.273438 263.875 204.046875 263.5625 204.796875 C 263.253906 205.546875 262.875 206.261719 262.425781 206.933594 C 261.976562 207.609375 261.46875 208.234375 260.898438 208.808594 C 260.324219 209.382812 259.703125 209.894531 259.03125 210.347656 C 258.359375 210.796875 257.652344 211.179688 256.90625 211.488281 C 256.160156 211.800781 255.390625 212.035156 254.597656 212.191406 C 253.804688 212.351562 253.003906 212.429688 252.195312 212.429688 C 251.386719 212.429688 250.589844 212.351562 249.796875 212.191406 C 249.003906 212.035156 248.234375 211.800781 247.488281 211.488281 C 246.742188 211.179688 246.03125 210.796875 245.359375 210.347656 C 244.6875 209.894531 244.066406 209.382812 243.496094 208.808594 C 242.925781 208.234375 242.414062 207.609375 241.964844 206.933594 C 241.515625 206.261719 241.136719 205.546875 240.828125 204.796875 C 240.519531 204.046875 240.285156 203.273438 240.128906 202.480469 C 239.96875 201.683594 239.890625 200.878906 239.890625 200.066406 C 239.890625 199.253906 239.96875 198.449219 240.128906 197.65625 C 240.285156 196.859375 240.519531 196.085938 240.828125 195.335938 C 241.136719 194.585938 241.515625 193.871094 241.964844 193.199219 C 242.414062 192.523438 242.925781 191.898438 243.496094 191.324219 C 244.066406 190.75 244.6875 190.238281 245.359375 189.785156 C 246.03125 189.335938 246.742188 188.953125 247.488281 188.644531 C 248.234375 188.332031 249.003906 188.097656 249.796875 187.941406 C 250.589844 187.78125 251.386719 187.703125 252.195312 187.703125 C 253.003906 187.703125 253.804688 187.78125 254.597656 187.941406 C 255.390625 188.097656 256.160156 188.332031 256.90625 188.644531 C 257.652344 188.953125 258.359375 189.335938 259.03125 189.785156 C 259.703125 190.238281 260.324219 190.75 260.898438 191.324219 C 261.46875 191.898438 261.976562 192.523438 262.425781 193.199219 C 262.875 193.871094 263.253906 194.585938 263.5625 195.335938 C 263.875 196.085938 264.105469 196.859375 264.265625 197.65625 C 264.421875 198.449219 264.5 199.253906 264.5 200.066406 Z M 264.5 200.066406"/><g clip-path="url(#9625531175)"><path fill="#2c6871" fill-opacity="1" fill-rule="nonzero" d="M 138.140625 278.941406 L 83.800781 278.941406 C 83.367188 278.941406 82.9375 278.902344 82.511719 278.816406 C 82.085938 278.734375 81.671875 278.613281 81.273438 278.449219 C 80.871094 278.285156 80.492188 278.085938 80.128906 277.847656 C 79.769531 277.613281 79.4375 277.34375 79.128906 277.042969 C 78.824219 276.742188 78.546875 276.414062 78.308594 276.058594 C 78.066406 275.703125 77.863281 275.332031 77.695312 274.9375 C 77.53125 274.542969 77.40625 274.136719 77.320312 273.71875 C 77.238281 273.300781 77.195312 272.878906 77.195312 272.453125 L 77.195312 220.453125 C 77.195312 220.027344 77.238281 219.605469 77.320312 219.1875 C 77.40625 218.769531 77.53125 218.363281 77.695312 217.96875 C 77.863281 217.578125 78.066406 217.203125 78.308594 216.847656 C 78.546875 216.492188 78.824219 216.164062 79.128906 215.863281 C 79.4375 215.5625 79.769531 215.292969 80.128906 215.058594 C 80.492188 214.820312 80.871094 214.621094 81.273438 214.457031 C 81.671875 214.292969 82.085938 214.171875 82.511719 214.089844 C 82.9375 214.003906 83.367188 213.964844 83.800781 213.964844 C 84.234375 213.964844 84.664062 214.003906 85.089844 214.089844 C 85.515625 214.171875 85.925781 214.292969 86.328125 214.457031 C 86.730469 214.621094 87.109375 214.820312 87.46875 215.058594 C 87.832031 215.292969 88.164062 215.5625 88.472656 215.863281 C 88.777344 216.164062 89.050781 216.492188 89.292969 216.847656 C 89.535156 217.203125 89.738281 217.578125 89.902344 217.96875 C 90.070312 218.363281 90.195312 218.769531 90.277344 219.1875 C 90.363281 219.605469 90.40625 220.027344 90.40625 220.453125 L 90.40625 265.964844 L 138.140625 265.964844 C 138.574219 265.964844 139.003906 266.003906 139.429688 266.085938 C 139.855469 266.171875 140.269531 266.292969 140.667969 266.457031 C 141.070312 266.621094 141.449219 266.820312 141.808594 267.058594 C 142.171875 267.292969 142.503906 267.5625 142.8125 267.863281 C 143.117188 268.164062 143.390625 268.492188 143.632812 268.847656 C 143.875 269.203125 144.078125 269.574219 144.242188 269.96875 C 144.410156 270.363281 144.535156 270.769531 144.621094 271.1875 C 144.703125 271.605469 144.746094 272.027344 144.746094 272.453125 C 144.746094 272.878906 144.703125 273.300781 144.621094 273.71875 C 144.535156 274.136719 144.410156 274.542969 144.242188 274.9375 C 144.078125 275.332031 143.875 275.703125 143.632812 276.058594 C 143.390625 276.414062 143.117188 276.742188 142.8125 277.042969 C 142.503906 277.34375 142.171875 277.613281 141.808594 277.847656 C 141.449219 278.085938 141.070312 278.285156 140.667969 278.449219 C 140.269531 278.613281 139.855469 278.734375 139.429688 278.816406 C 139.003906 278.902344 138.574219 278.941406 138.140625 278.941406 Z M 138.140625 278.941406"/></g></svg>