<svg xmlns="http://www.w3.org/2000/svg" xmlns:xlink="http://www.w3.org/1999/xlink" width="500" zoomAndPan="magnify" viewBox="0 0 375 374.999991" height="500" preserveAspectRatio="xMidYMid meet" version="1.0"><defs><g/><clipPath id="fd1fd31f89"><path d="M 108.28125 62.320312 L 266.246094 62.320312 L 266.246094 199.683594 L 108.28125 199.683594 Z M 108.28125 62.320312 " clip-rule="nonzero"/></clipPath><clipPath id="58e5e8eb19"><path d="M 123.949219 146 L 162.867188 146 L 162.867188 183.738281 L 123.949219 183.738281 Z M 123.949219 146 " clip-rule="nonzero"/></clipPath></defs><g clip-path="url(#fd1fd31f89)"><path fill="#2c6871" d="M 220.925781 76.105469 L 240.394531 76.105469 C 241.113281 76.105469 241.824219 76.175781 242.527344 76.316406 C 243.230469 76.457031 243.917969 76.664062 244.578125 76.941406 C 245.242188 77.21875 245.875 77.558594 246.46875 77.957031 C 247.066406 78.359375 247.621094 78.816406 248.128906 79.324219 C 248.636719 79.835938 249.089844 80.390625 249.488281 80.992188 C 249.886719 81.589844 250.222656 82.222656 250.496094 82.890625 C 250.773438 83.558594 250.980469 84.246094 251.121094 84.953125 C 251.261719 85.660156 251.328125 86.375 251.328125 87.097656 L 251.328125 111.742188 C 251.328125 113.59375 251.328125 114.984375 250.410156 116.832031 L 253.171875 116.832031 C 262.523438 116.832031 266.070312 122.386719 266.070312 129.332031 L 266.070312 146.457031 C 266.070312 153.398438 263.445312 159.414062 253.171875 159.414062 L 250.410156 159.414062 C 251.328125 160.804688 251.328125 162.65625 251.328125 164.507812 L 251.328125 188.675781 C 251.328125 189.398438 251.261719 190.113281 251.121094 190.820312 C 250.980469 191.527344 250.773438 192.214844 250.496094 192.882812 C 250.222656 193.546875 249.886719 194.179688 249.488281 194.78125 C 249.089844 195.378906 248.632812 195.933594 248.128906 196.445312 C 247.621094 196.957031 247.066406 197.410156 246.46875 197.8125 C 245.871094 198.214844 245.242188 198.550781 244.578125 198.828125 C 243.914062 199.105469 243.230469 199.3125 242.527344 199.453125 C 241.824219 199.59375 241.113281 199.664062 240.394531 199.664062 L 117.910156 199.664062 C 117.289062 199.664062 116.675781 199.601562 116.070312 199.476562 C 115.460938 199.355469 114.871094 199.175781 114.300781 198.933594 C 113.730469 198.695312 113.183594 198.40625 112.671875 198.058594 C 112.15625 197.714844 111.679688 197.320312 111.242188 196.878906 C 110.800781 196.441406 110.410156 195.960938 110.066406 195.445312 C 109.71875 194.929688 109.429688 194.382812 109.1875 193.808594 C 108.949219 193.234375 108.769531 192.644531 108.648438 192.035156 C 108.523438 191.421875 108.460938 190.808594 108.457031 190.183594 L 108.457031 87.558594 C 108.460938 86.808594 108.535156 86.0625 108.679688 85.328125 C 108.828125 84.589844 109.046875 83.875 109.332031 83.179688 C 109.621094 82.488281 109.972656 81.828125 110.386719 81.203125 C 110.804688 80.578125 111.277344 80 111.804688 79.46875 C 112.332031 78.9375 112.90625 78.464844 113.53125 78.046875 C 114.152344 77.628906 114.808594 77.273438 115.496094 76.984375 C 116.1875 76.695312 116.898438 76.476562 117.632812 76.328125 C 118.367188 76.179688 119.105469 76.105469 119.855469 76.105469 L 181.773438 76.105469 L 210.332031 62.679688 C 212.175781 61.753906 214.480469 62.679688 215.398438 64.53125 Z M 220.925781 76.105469 " fill-opacity="1" fill-rule="nonzero"/></g><path fill="#cbd2d8" d="M 222.011719 117.027344 L 240.273438 116.949219 C 242.117188 116.488281 243.960938 114.058594 243.960938 111.742188 L 243.960938 98.78125 L 129.71875 98.78125 C 127.417969 98.78125 125.574219 96.929688 125.574219 95.082031 C 125.574219 94.808594 125.601562 94.535156 125.65625 94.269531 C 125.707031 94 125.785156 93.738281 125.890625 93.484375 C 125.996094 93.234375 126.121094 92.992188 126.273438 92.765625 C 126.425781 92.539062 126.597656 92.328125 126.789062 92.132812 C 126.980469 91.941406 127.191406 91.769531 127.417969 91.617188 C 127.644531 91.464844 127.882812 91.335938 128.132812 91.230469 C 128.386719 91.128906 128.644531 91.046875 128.910156 90.996094 C 129.179688 90.941406 129.449219 90.914062 129.71875 90.914062 L 150.910156 90.914062 L 165.652344 83.972656 L 121.355469 83.972656 C 121.023438 83.976562 120.695312 84.011719 120.371094 84.078125 C 120.042969 84.144531 119.730469 84.242188 119.421875 84.371094 C 119.117188 84.5 118.828125 84.65625 118.550781 84.84375 C 118.273438 85.03125 118.019531 85.242188 117.785156 85.476562 C 117.550781 85.710938 117.339844 85.96875 117.15625 86.246094 C 116.972656 86.523438 116.8125 86.816406 116.6875 87.121094 C 116.558594 87.429688 116.460938 87.746094 116.394531 88.074219 C 116.324219 88.398438 116.292969 88.730469 116.289062 89.0625 L 116.289062 187.1875 C 116.292969 187.519531 116.324219 187.847656 116.394531 188.175781 C 116.460938 188.503906 116.558594 188.820312 116.6875 189.128906 C 116.8125 189.433594 116.972656 189.726562 117.15625 190.003906 C 117.339844 190.28125 117.550781 190.535156 117.785156 190.773438 C 118.019531 191.007812 118.273438 191.21875 118.550781 191.40625 C 118.828125 191.589844 119.117188 191.75 119.421875 191.878906 C 119.730469 192.007812 120.042969 192.105469 120.371094 192.171875 C 120.695312 192.238281 121.023438 192.273438 121.355469 192.277344 L 238.894531 192.277344 C 239.222656 192.273438 239.554688 192.238281 239.878906 192.171875 C 240.203125 192.105469 240.519531 192.007812 240.824219 191.878906 C 241.128906 191.75 241.421875 191.589844 241.695312 191.40625 C 241.972656 191.21875 242.226562 191.007812 242.460938 190.773438 C 242.695312 190.535156 242.90625 190.28125 243.09375 190.003906 C 243.277344 189.726562 243.433594 189.433594 243.5625 189.125 C 243.691406 188.820312 243.789062 188.503906 243.855469 188.175781 C 243.921875 187.847656 243.957031 187.519531 243.960938 187.1875 L 243.960938 164.507812 C 243.957031 164.171875 243.921875 163.84375 243.855469 163.515625 C 243.789062 163.191406 243.691406 162.871094 243.5625 162.566406 C 243.433594 162.257812 243.277344 161.964844 243.089844 161.6875 C 242.90625 161.410156 242.695312 161.15625 242.460938 160.917969 C 242.226562 160.683594 241.972656 160.472656 241.695312 160.289062 C 241.421875 160.101562 241.128906 159.945312 240.824219 159.816406 C 240.519531 159.6875 240.203125 159.585938 239.878906 159.519531 C 239.554688 159.453125 239.222656 159.417969 238.894531 159.414062 L 215.5625 159.414062 C 205.285156 159.414062 203.125 153.859375 203.125 146.457031 L 203.125 129.332031 C 203.125 117.757812 210.953125 117.027344 222.011719 117.027344 Z M 222.011719 117.027344 " fill-opacity="1" fill-rule="nonzero"/><path fill="#8fffa8" d="M 168.875 90.914062 L 219.546875 90.914062 L 209.871094 71.480469 Z M 168.875 90.914062 " fill-opacity="1" fill-rule="nonzero"/><path fill="#b0bbc4" d="M 228.296875 90.914062 L 243.960938 90.914062 L 243.960938 89.0625 C 243.957031 88.730469 243.921875 88.398438 243.855469 88.074219 C 243.789062 87.746094 243.691406 87.429688 243.5625 87.121094 C 243.433594 86.816406 243.277344 86.523438 243.09375 86.246094 C 242.90625 85.96875 242.695312 85.710938 242.460938 85.476562 C 242.226562 85.242188 241.972656 85.03125 241.695312 84.84375 C 241.421875 84.65625 241.128906 84.5 240.824219 84.371094 C 240.519531 84.242188 240.203125 84.144531 239.878906 84.078125 C 239.554688 84.011719 239.222656 83.976562 238.894531 83.972656 L 224.613281 83.972656 Z M 228.296875 90.914062 " fill-opacity="1" fill-rule="nonzero"/><path fill="#cbd2d8" d="M 253.171875 124.703125 L 215.5625 124.703125 C 212.796875 124.703125 210.953125 126.554688 210.953125 129.332031 L 210.953125 146.457031 C 210.953125 149.234375 212.796875 151.546875 215.5625 151.546875 L 253.171875 151.546875 C 253.503906 151.542969 253.832031 151.507812 254.15625 151.441406 C 254.484375 151.375 254.796875 151.277344 255.105469 151.148438 C 255.410156 151.019531 255.703125 150.859375 255.976562 150.675781 C 256.253906 150.488281 256.507812 150.277344 256.742188 150.042969 C 256.976562 149.804688 257.1875 149.550781 257.371094 149.273438 C 257.558594 148.996094 257.714844 148.703125 257.839844 148.398438 C 257.96875 148.089844 258.066406 147.773438 258.132812 147.445312 C 258.203125 147.121094 258.238281 146.789062 258.238281 146.457031 L 258.238281 129.332031 C 258.238281 126.554688 255.9375 124.703125 253.171875 124.703125 Z M 253.171875 124.703125 " fill-opacity="1" fill-rule="nonzero"/><path fill="#2c6871" d="M 231.863281 138.125 C 231.863281 138.59375 231.816406 139.054688 231.726562 139.515625 C 231.636719 139.972656 231.5 140.417969 231.324219 140.851562 C 231.144531 141.28125 230.925781 141.691406 230.667969 142.082031 C 230.410156 142.472656 230.117188 142.832031 229.785156 143.160156 C 229.457031 143.492188 229.097656 143.789062 228.710938 144.046875 C 228.324219 144.308594 227.917969 144.527344 227.488281 144.707031 C 227.058594 144.882812 226.613281 145.019531 226.15625 145.109375 C 225.699219 145.203125 225.238281 145.246094 224.773438 145.246094 C 224.308594 145.246094 223.847656 145.203125 223.390625 145.109375 C 222.933594 145.019531 222.492188 144.882812 222.0625 144.707031 C 221.632812 144.527344 221.222656 144.308594 220.835938 144.046875 C 220.449219 143.789062 220.089844 143.492188 219.761719 143.160156 C 219.433594 142.832031 219.136719 142.472656 218.878906 142.082031 C 218.621094 141.691406 218.402344 141.28125 218.222656 140.851562 C 218.046875 140.417969 217.910156 139.972656 217.820312 139.515625 C 217.730469 139.054688 217.683594 138.59375 217.683594 138.125 C 217.683594 137.65625 217.730469 137.195312 217.820312 136.734375 C 217.910156 136.277344 218.046875 135.832031 218.222656 135.398438 C 218.402344 134.964844 218.621094 134.554688 218.878906 134.167969 C 219.136719 133.777344 219.433594 133.417969 219.761719 133.085938 C 220.089844 132.757812 220.449219 132.460938 220.835938 132.203125 C 221.222656 131.941406 221.632812 131.722656 222.0625 131.542969 C 222.492188 131.363281 222.933594 131.230469 223.390625 131.136719 C 223.847656 131.046875 224.308594 131 224.773438 131 C 225.238281 131 225.699219 131.046875 226.15625 131.136719 C 226.613281 131.230469 227.058594 131.363281 227.488281 131.542969 C 227.917969 131.722656 228.324219 131.941406 228.710938 132.203125 C 229.097656 132.460938 229.457031 132.757812 229.785156 133.085938 C 230.117188 133.417969 230.410156 133.777344 230.667969 134.167969 C 230.925781 134.554688 231.144531 134.964844 231.324219 135.398438 C 231.5 135.832031 231.636719 136.277344 231.726562 136.734375 C 231.816406 137.195312 231.863281 137.65625 231.863281 138.125 Z M 231.863281 138.125 " fill-opacity="1" fill-rule="nonzero"/><g clip-path="url(#58e5e8eb19)"><path fill="#2c6871" d="M 159.0625 183.566406 L 127.753906 183.566406 C 127.25 183.566406 126.765625 183.472656 126.296875 183.285156 C 125.832031 183.09375 125.421875 182.824219 125.0625 182.472656 C 124.707031 182.121094 124.429688 181.71875 124.238281 181.261719 C 124.046875 180.800781 123.949219 180.324219 123.949219 179.828125 L 123.949219 149.871094 C 123.949219 149.375 124.046875 148.898438 124.238281 148.4375 C 124.429688 147.980469 124.707031 147.578125 125.0625 147.226562 C 125.421875 146.875 125.832031 146.605469 126.296875 146.414062 C 126.765625 146.226562 127.25 146.132812 127.753906 146.132812 C 128.257812 146.132812 128.746094 146.226562 129.210938 146.414062 C 129.675781 146.605469 130.089844 146.875 130.445312 147.226562 C 130.800781 147.578125 131.078125 147.980469 131.269531 148.4375 C 131.464844 148.898438 131.558594 149.375 131.558594 149.871094 L 131.558594 176.089844 L 159.0625 176.089844 C 159.566406 176.089844 160.050781 176.183594 160.519531 176.375 C 160.984375 176.5625 161.394531 176.835938 161.753906 177.183594 C 162.109375 177.535156 162.386719 177.941406 162.578125 178.398438 C 162.769531 178.855469 162.867188 179.332031 162.867188 179.828125 C 162.867188 180.324219 162.769531 180.800781 162.578125 181.261719 C 162.386719 181.71875 162.109375 182.121094 161.753906 182.472656 C 161.394531 182.824219 160.984375 183.09375 160.519531 183.285156 C 160.050781 183.472656 159.566406 183.566406 159.0625 183.566406 Z M 159.0625 183.566406 " fill-opacity="1" fill-rule="nonzero"/></g><g fill="#2c6871" fill-opacity="1"><g transform="translate(109.166991, 273.83205)"><g><path d="M 47.511719 0 L 42.035156 -35.492188 L 34.328125 -35.492188 L 24.695312 -13.691406 L 15.058594 -35.492188 L 7.402344 -35.492188 L 1.824219 0 L 9.632812 0 L 13.132812 -23.121094 L 23.730469 -0.0507812 L 25.605469 -0.0507812 L 36.203125 -23.121094 L 39.703125 0 Z M 47.511719 0 "/></g></g></g><g fill="#2c6871" fill-opacity="1"><g transform="translate(158.596823, 273.83205)"><g><path d="M 27.582031 0 L 35.949219 0 L 21.601562 -35.492188 L 14.351562 -35.492188 L 0.40625 0 L 8.570312 0 L 11.003906 -6.691406 L 25.097656 -6.691406 Z M 18.050781 -26.113281 L 22.714844 -13.386719 L 13.386719 -13.386719 Z M 18.050781 -26.113281 "/></g></g></g><g fill="#2c6871" fill-opacity="1"><g transform="translate(194.997451, 273.83205)"><g><path d="M 33.617188 -35.492188 L 25.402344 -35.492188 L 17.1875 -21.246094 L 9.027344 -35.492188 L 0.863281 -35.492188 L 13.234375 -14.351562 L 13.234375 0 L 21.09375 0 L 21.09375 -14.300781 Z M 33.617188 -35.492188 "/></g></g></g><g fill="#2c6871" fill-opacity="1"><g transform="translate(229.420888, 273.83205)"><g><path d="M 27.582031 0 L 35.949219 0 L 21.601562 -35.492188 L 14.351562 -35.492188 L 0.40625 0 L 8.570312 0 L 11.003906 -6.691406 L 25.097656 -6.691406 Z M 18.050781 -26.113281 L 22.714844 -13.386719 L 13.386719 -13.386719 Z M 18.050781 -26.113281 "/></g></g></g></svg>